<svg width="36" height="36" viewBox="0 0 36 36" fill="none" xmlns="http://www.w3.org/2000/svg">
<g clip-path="url(#clip0_208_847)">
<path d="M30.6736 30.6741H25.3395V22.3206C25.3395 20.3286 25.3039 17.7643 22.5653 17.7643C19.7871 17.7643 19.362 19.9347 19.362 22.1756V30.6736H14.0281V13.4954H19.1486V15.843H19.2204C19.7328 14.9668 20.4733 14.2459 21.363 13.7573C22.2528 13.2686 23.2584 13.0304 24.2727 13.068C29.6791 13.068 30.6758 16.6242 30.6758 21.2504L30.6736 30.6741ZM8.00932 11.1474C6.29974 11.1477 4.9136 9.76193 4.91332 8.05236C4.91303 6.34278 6.29861 4.95664 8.00819 4.95636C9.71777 4.95593 11.1039 6.34165 11.1042 8.05123C11.1043 8.8722 10.7784 9.65962 10.198 10.2403C9.61757 10.8209 8.83029 11.1472 8.00932 11.1474ZM10.6764 30.6743H5.33674V13.4954H10.6763V30.6741L10.6764 30.6743ZM33.3328 0.00255907H2.65642C1.20658 -0.0137534 0.0175967 1.14767 -0.00012207 2.59751V33.4018C0.0170342 34.8524 1.20588 36.0149 2.65628 35.9997H33.3328C34.7863 36.0177 35.9798 34.8552 35.9999 33.4018V2.59512C35.9792 1.14247 34.7856 -0.0188159 33.3328 0.00016845" fill="#0A66C2"/>
</g>
<defs>
<clipPath id="clip0_208_847">
<rect width="36" height="36" fill="white"/>
</clipPath>
</defs>
</svg>
