<svg width="33" height="28" viewBox="0 0 33 28" fill="none" xmlns="http://www.w3.org/2000/svg">
<path d="M33 3.40955C31.7643 3.9785 30.4536 4.35195 29.1114 4.5175C30.5094 3.64668 31.5828 2.26771 32.0882 0.624691C30.7593 1.44431 29.3053 2.02178 27.7891 2.33216C26.554 0.96471 24.7946 0.110107 22.8472 0.110107C19.1082 0.110107 16.0767 3.26058 16.0767 7.14628C16.0767 7.69784 16.1366 8.2348 16.252 8.74992C10.6252 8.45638 5.63655 5.65518 2.29724 1.39811C1.71458 2.43732 1.38071 3.64615 1.38071 4.93549C1.38071 7.37671 2.57606 9.5303 4.39261 10.7922C3.31747 10.7572 2.26598 10.4554 1.32593 9.91198C1.32554 9.94146 1.32554 9.97093 1.32554 10.0005C1.32554 13.4097 3.65926 16.2536 6.75636 16.9001C5.75939 17.1819 4.71362 17.2231 3.69896 17.0206C4.56045 19.8161 7.06084 21.8503 10.0234 21.9072C7.70627 23.7944 4.78693 24.9193 1.61507 24.9193C1.0685 24.9193 0.529676 24.886 0 24.821C2.99617 26.8174 6.55488 27.9823 10.3782 27.9823C22.8315 27.9823 29.6412 17.2604 29.6412 7.9623C29.6412 7.65711 29.6348 7.35367 29.6216 7.05196C30.9471 6.05613 32.0911 4.8227 33 3.40955Z" fill="#55ACEE"/>
</svg>
